<?xml version="1.0" encoding="utf-8"?>
<!-- Generator: Adobe Illustrator 24.1.0, SVG Export Plug-In . SVG Version: 6.00 Build 0)  -->
<svg version="1.1" id="Layer_1" xmlns="http://www.w3.org/2000/svg" xmlns:xlink="http://www.w3.org/1999/xlink" x="0px" y="0px"
	 viewBox="0 0 220.06 278.8" style="enable-background:new 0 0 220.06 278.8;" xml:space="preserve">
<style type="text/css">
	.st0{fill:none;stroke:#9ECC4C;stroke-width:30;stroke-miterlimit:10;}
	.st1{fill:#FFFFFF;stroke:#9ECC4C;stroke-width:30;stroke-miterlimit:10;}
	.st2{fill:#9ECC4C;}
	.st3{fill:#FFFFFF;}
</style>
<path class="st0" d="M171.12,172.13V88.73V172.13z"/>
<line class="st0" x1="49.84" y1="179.8" x2="49.84" y2="96.39"/>
<circle class="st1" cx="110.62" cy="96.55" r="60.5"/>
<circle class="st2" cx="110.41" cy="169.46" r="95.88"/>
<g>
	<path class="st2" d="M144.9,194.5c-8.04,9.61-20.56,15.17-33.96,13.79c-21.44-2.22-37.02-21.4-34.81-42.84
		c2.22-21.44,21.4-37.02,42.84-34.81c8.04,0.83,15.26,4.05,21.02,8.87"/>
	<g>
		<path class="st3" d="M134.3,183.89c-1.32,1.52-2.71,2.93-4.19,4.29c-1.36,1.15-1.53,1.29-0.5,0.42c-0.61,0.43-1.24,0.84-1.89,1.22
			c-0.46,0.28-4.7,2.48-2.47,1.51c-1.62,0.7-3.36,1.18-5.07,1.6c-0.74,0.19-1.49,0.35-2.25,0.48c1.44-0.16,1.23-0.15-0.63,0.01
			c-2.13,0.04-4.23,0.09-6.35-0.14c2.67,0.29-0.59-0.2-1.46-0.42c-0.58-0.14-5.79-1.93-2.79-0.67c-1.22-0.51-2.4-1.14-3.55-1.8
			c-0.56-0.32-4.85-3.43-2.36-1.38c-1.01-0.83-1.98-1.71-2.89-2.64c-0.49-0.49-3.65-4.6-1.84-1.95c-0.74-1.08-1.45-2.17-2.1-3.3
			c-0.43-0.76-0.84-1.53-1.21-2.32c0.61,1.59,0.6,1.58-0.02-0.05c-0.41-1.26-0.84-2.51-1.16-3.79c-0.22-0.86-0.4-1.73-0.56-2.61
			c0.2,1.78,0.21,1.77,0.03-0.02c-0.04-1.61-0.13-3.19-0.05-4.8c0.03-0.7,0.08-1.39,0.15-2.09c-0.24,1.68-0.2,1.63,0.11-0.13
			c0.43-1.53,0.8-3.06,1.27-4.58c0.37-1.01,0.27-0.86-0.29,0.46c0.36-0.81,0.75-1.61,1.16-2.39c0.82-1.56,1.76-3.04,2.77-4.48
			c-1.48,2.1,0.34-0.32,0.98-1c1.19-1.26,2.46-2.46,3.82-3.55c-2.49,1.99,0.9-0.47,1.22-0.66c0.53-0.32,5.36-2.73,2.26-1.42
			c1.21-0.51,2.48-0.92,3.74-1.29c0.66-0.19,6.05-1.14,2.56-0.75c1.35-0.15,2.72-0.22,4.08-0.22c4.21-0.01,3.68,0.23,7.92,1.27
			c1.7,0.64,1.95,0.69,0.74,0.14c0.93,0.42,1.84,0.87,2.73,1.37c0.89,0.49,1.75,1.01,2.6,1.56c1.46,1.03,1.65,1.15,0.59,0.35
			c6.3,5.08,15.05,6.16,21.21,0c5.25-5.25,6.34-16.11,0-21.21c-14-11.27-31.4-16.22-49.13-11.78c-14.74,3.7-28.42,14.47-34.87,28.32
			c-7.23,15.53-7.3,32.37-0.05,47.91c6.49,13.91,20.1,24.75,34.95,28.44c19.5,4.85,40.76-1.47,54.01-16.69
			c5.32-6.11,6.01-15.21,0-21.21C150.08,178.46,139.64,177.75,134.3,183.89L134.3,183.89z"/>
	</g>
</g>
</svg>
